<svg width="50" height="50" viewBox="0 0 50 50" fill="none" xmlns="http://www.w3.org/2000/svg">
<path fill-rule="evenodd" clip-rule="evenodd" d="M24.767 7.56055L41.7942 15.974V35.1069L24.767 43.5204L7.73975 35.1069V15.974L24.767 7.56055ZM10.8356 19.4272V33.1833L23.2191 39.3022V25.546L10.8356 19.4272ZM26.3149 25.546V39.3022L38.6984 33.1833V19.4272L34.0546 21.7218V27.8623L30.9587 29.4103V23.2516L26.3149 25.546ZM36.7521 16.9357L32.7186 18.9287C32.6303 18.8558 32.5322 18.7916 32.4253 18.7382L20.8487 12.9498L24.767 11.0137L36.7521 16.9357ZM17.3669 14.6702L29.281 20.6273L24.767 22.8578L12.782 16.9357L17.3669 14.6702Z" fill="#FFD85C"/>
</svg>
