<svg xmlns="http://www.w3.org/2000/svg" width="221.66" height="65.7" viewBox="0 0 226 67">
    <g clip-path="url(#clip0_172_17)">
    <path d="M67.1213 12.3004V0L35.6282 19.5554L35.6107 19.5206V48.645L57.874 34.8831C57.874 38.6585 55.9024 42.1729 52.6746 44.1737L35.6107 54.7344V67.0174L58.5893 52.8032C63.8934 49.5149 67.1387 43.7562 67.1387 37.5625V18.6507L44.8754 32.4126V26.0797L67.1213 12.3004Z" fill="white"></path>
    <path d="M14.7608 44.3477C11.5155 42.3469 9.56134 38.8325 9.56134 35.0571V5.86315L0 0V37.5451C0 43.7388 3.22782 49.4975 8.54937 52.7858L31.9118 67V54.717L14.7608 44.3477Z" fill="#EAC31F"></path>
    <path d="M31.8769 19.5554L12.4576 7.6377V19.9729L31.8944 31.8036V19.5206L31.8769 19.5554Z" fill="white"></path>
    <path d="M88.7563 18.8941C88.7563 16.441 90.6407 14.7012 93.2055 14.7012C94.6886 14.7012 95.8925 15.2405 96.6776 16.2148L95.2294 17.5197C94.7235 16.9107 94.0953 16.5802 93.3276 16.5802C92.0016 16.5802 91.0769 17.5023 91.0769 18.8767C91.0769 20.2512 92.0016 21.1733 93.3276 21.1733C94.0953 21.1733 94.7235 20.8427 95.2294 20.2338L96.6776 21.556C95.8925 22.5303 94.6886 23.0696 93.2055 23.0696C90.6407 23.087 88.7563 21.3472 88.7563 18.8941Z" fill="white"></path>
    <path d="M110.461 20.7903H109.223V22.9303H106.937V14.875H110.636C112.834 14.875 114.23 16.0233 114.23 17.8501C114.23 19.0331 113.654 19.903 112.642 20.3902L114.387 22.9303H111.944L110.461 20.7903ZM110.479 16.667H109.205V19.0331H110.479C111.421 19.0331 111.892 18.5982 111.892 17.8675C111.909 17.102 111.421 16.667 110.479 16.667Z" fill="white"></path>
    <path d="M128.921 20.0422V22.9303H126.635V20.0074L123.547 14.875H125.955L127.874 18.0762L129.793 14.875H132.009L128.921 20.0422Z" fill="white"></path>
    <path d="M141.099 22.1997L141.85 20.5121C142.565 20.9819 143.577 21.3124 144.519 21.3124C145.461 21.3124 145.828 21.0515 145.828 20.6513C145.828 19.3813 141.239 20.3034 141.239 17.3109C141.239 15.8668 142.426 14.7012 144.816 14.7012C145.863 14.7012 146.944 14.9447 147.747 15.3971L147.049 17.0847C146.281 16.6672 145.514 16.4584 144.816 16.4584C143.856 16.4584 143.507 16.7889 143.507 17.1891C143.507 18.4244 148.096 17.5023 148.096 20.4773C148.096 21.8866 146.91 23.087 144.519 23.087C143.176 23.087 141.85 22.7217 141.099 22.1997Z" fill="white"></path>
    <path d="M159.978 16.6844H157.5V14.875H164.741V16.6844H162.264V22.9303H159.978V16.6844Z" fill="white"></path>
    <path d="M179.833 21.3645H176.414L175.785 22.9303H173.448L177.007 14.875H179.258L182.834 22.9303H180.461L179.833 21.3645ZM179.153 19.6769L178.106 17.102L177.059 19.6769H179.153Z" fill="white"></path>
    <path d="M192.727 14.875H195.013V21.1209H198.869V22.9303H192.727V14.875Z" fill="white"></path>
    <path d="M89.1752 31.2119H91.4608V37.4578H95.3168V39.2672H89.1752V31.2119Z" fill="#EAC31F"></path>
    <path d="M104.913 35.231C104.913 32.8127 106.815 31.0381 109.397 31.0381C111.979 31.0381 113.881 32.8127 113.881 35.231C113.881 37.6494 111.979 39.424 109.397 39.424C106.815 39.424 104.913 37.6494 104.913 35.231ZM111.578 35.231C111.578 33.8392 110.618 32.9345 109.397 32.9345C108.176 32.9345 107.216 33.8392 107.216 35.231C107.216 36.6229 108.176 37.5276 109.397 37.5276C110.618 37.5276 111.578 36.6229 111.578 35.231Z" fill="#EAC31F"></path>
    <path d="M129.741 35.057H131.765V38.3975C130.823 39.0586 129.549 39.424 128.363 39.424C125.78 39.424 123.913 37.6842 123.913 35.231C123.913 32.7779 125.798 31.0381 128.415 31.0381C129.933 31.0381 131.154 31.56 131.939 32.5169L130.491 33.8392C129.933 33.2302 129.305 32.9345 128.52 32.9345C127.141 32.9345 126.217 33.8392 126.217 35.231C126.217 36.5881 127.141 37.5276 128.502 37.5276C128.921 37.5276 129.34 37.4406 129.741 37.2666V35.057Z" fill="#EAC31F"></path>
    <path d="M142.46 31.2119H144.746V39.2672H142.46V31.2119Z" fill="#EAC31F"></path>
    <path d="M155.04 38.5367L155.79 36.849C156.506 37.3188 157.518 37.6494 158.46 37.6494C159.402 37.6494 159.768 37.3884 159.768 36.9882C159.768 35.7182 155.18 36.6403 155.18 33.6478C155.18 32.2038 156.366 31.0381 158.757 31.0381C159.803 31.0381 160.885 31.2817 161.688 31.734L160.99 33.4216C160.222 33.0041 159.454 32.7953 158.757 32.7953C157.797 32.7953 157.448 33.1259 157.448 33.526C157.448 34.7613 162.037 33.8392 162.037 36.8142C162.037 38.2235 160.85 39.424 158.46 39.424C157.116 39.424 155.808 39.076 155.04 38.5367Z" fill="#EAC31F"></path>
    <path d="M173.919 33.0213H171.441V31.2119H178.682V33.0213H176.204V39.2672H173.919V33.0213Z" fill="#EAC31F"></path>
    <path d="M188.767 31.2119H191.052V39.2672H188.767V31.2119Z" fill="#EAC31F"></path>
    <path d="M201.503 35.231C201.503 32.7779 203.388 31.0381 205.953 31.0381C207.436 31.0381 208.64 31.5774 209.425 32.5517L207.977 33.8566C207.471 33.2476 206.842 32.9171 206.075 32.9171C204.749 32.9171 203.824 33.8392 203.824 35.2136C203.824 36.5881 204.749 37.5102 206.075 37.5102C206.842 37.5102 207.471 37.1796 207.977 36.5707L209.425 37.8929C208.64 38.8672 207.436 39.4066 205.953 39.4066C203.388 39.424 201.503 37.6842 201.503 35.231Z" fill="#EAC31F"></path>
    <path d="M219.021 38.5367L219.771 36.849C220.486 37.3188 221.498 37.6494 222.441 37.6494C223.383 37.6494 223.749 37.3884 223.749 36.9882C223.749 35.7182 219.16 36.6403 219.16 33.6478C219.16 32.2038 220.347 31.0381 222.737 31.0381C223.784 31.0381 224.866 31.2817 225.668 31.734L224.971 33.4216C224.203 33.0041 223.435 32.7953 222.737 32.7953C221.778 32.7953 221.429 33.1259 221.429 33.526C221.429 34.7613 226.017 33.8392 226.017 36.8142C226.017 38.2235 224.848 39.424 222.441 39.424C221.097 39.424 219.771 39.076 219.021 38.5367Z" fill="#EAC31F"></path>
    <path d="M88.5994 54.8736L89.3496 53.186C90.065 53.6557 91.0769 53.9863 92.0191 53.9863C92.9613 53.9863 93.3277 53.7253 93.3277 53.3251C93.3277 52.0551 88.7389 52.9772 88.7389 49.9847C88.7389 48.5407 89.9254 47.375 92.3157 47.375C93.3626 47.375 94.4443 47.6186 95.2469 48.0709L94.549 49.7585C93.7813 49.341 93.0136 49.1322 92.3157 49.1322C91.3561 49.1322 91.0071 49.4628 91.0071 49.8629C91.0071 51.0982 95.5959 50.1761 95.5959 53.1512C95.5959 54.5604 94.4269 55.7609 92.0191 55.7609C90.6756 55.7609 89.3671 55.4129 88.5994 54.8736Z" fill="white"></path>
    <path d="M112.363 53.8469V55.6041H105.873V47.5488H112.206V49.306H108.123V50.6631H111.718V52.3681H108.123V53.8469H112.363V53.8469Z" fill="white"></path>
    <path d="M126.408 53.4642H125.17V55.6041H122.884V47.5488H126.583C128.781 47.5488 130.177 48.6971 130.177 50.5239C130.177 51.707 129.601 52.5769 128.589 53.064L130.334 55.6041H127.892L126.408 53.4642ZM126.426 49.3408H125.152V51.707H126.426C127.368 51.707 127.839 51.272 127.839 50.5413C127.857 49.7758 127.368 49.3408 126.426 49.3408Z" fill="white"></path>
    <path d="M148.846 47.5488L145.392 55.6041H143.141L139.686 47.5488H142.164L144.362 52.803L146.596 47.5488H148.846Z" fill="white"></path>
    <path d="M158.565 47.5488H160.85V55.6041H158.565V47.5488Z" fill="white"></path>
    <path d="M171.301 51.5679C171.301 49.1148 173.186 47.375 175.751 47.375C177.234 47.375 178.438 47.9143 179.223 48.8886L177.774 50.1935C177.269 49.5846 176.64 49.254 175.873 49.254C174.547 49.254 173.622 50.1761 173.622 51.5505C173.622 52.925 174.547 53.8471 175.873 53.8471C176.64 53.8471 177.269 53.5165 177.774 52.9076L179.223 54.2298C178.438 55.2041 177.234 55.7435 175.751 55.7435C173.186 55.7609 171.301 54.0211 171.301 51.5679Z" fill="white"></path>
    <path d="M195.955 53.8469V55.6041H189.464V47.5488H195.798V49.306H191.715V50.6631H195.309V52.3681H191.715V53.8469H195.955V53.8469Z" fill="white"></path>
    <path d="M205.9 54.8736L206.651 53.186C207.366 53.6557 208.378 53.9863 209.32 53.9863C210.262 53.9863 210.629 53.7253 210.629 53.3251C210.629 52.0551 206.04 52.9772 206.04 49.9847C206.04 48.5407 207.226 47.375 209.617 47.375C210.663 47.375 211.745 47.6186 212.548 48.0709L211.85 49.7585C211.082 49.341 210.315 49.1322 209.617 49.1322C208.657 49.1322 208.308 49.4628 208.308 49.8629C208.308 51.0982 212.897 50.1761 212.897 53.1512C212.897 54.5604 211.71 55.7609 209.32 55.7609C207.977 55.7609 206.668 55.4129 205.9 54.8736Z" fill="white"></path>
    </g>
    <defs>
    <clipPath id="clip0_172_17">
    <rect width="226" height="67" fill="white"></rect>
    </clipPath>
    </defs>
</svg>